<svg xmlns="http://www.w3.org/2000/svg"><symbol id="i-airplane" viewBox="0 0 32 32"><path d="M27.161 6.158a.928.928 0 0 0-.532-.14L11.795 7.254C10.396 5.85 6.366 2 3.931 2c-.56 0-1.035.197-1.4.534-.363.365-.531.87-.531 1.433.028 2.388 3.834 6.35 5.206 7.699l-1.204 15.06c0 .169.028.337.112.478l.991 2.599c.14.225.487.197.94.197h.112c.466 0 .61-.271.694-.552l3.7-12.696 7.137 5.647.084 5.057c0 .17.056.338.168.478l.756.9c.14.168.335.252.643.28.252-.028.476-.14.616-.365l2.603-4.186 4.03-2.53c.224-.14.336-.365.364-.617a.707.707 0 0 0-.28-.647l-.867-.758a.916.916 0 0 0-.448-.197l-4.842-.309-5.794-6.912L29.4 9.362a.873.873 0 0 0 .588-.619c.056-.252-.084-.561-.308-.758L27.16 6.158z" fill-rule="evenodd"/></symbol><symbol id="i-ask-question" viewBox="0 0 32 32"><path d="M15.123 27.949C7.86 27.949 2 21.82 2 14.769S7.888 2 15.15 2c7.264 0 12.856 5.712 12.856 12.764 0 2.233-.295 4.338-1.333 6.164L30 27.667l-7.225-2.492c-2.15 1.488-4.81 2.774-7.652 2.774zm-1.235-9.184c.251.241.578.386.98.386.629 0 1.358-.482 1.358-1.301 0-.265-.076-.506-.227-.723-.176-.241-.251-.386-.251-.578 0-1.446 4.801-1.735 4.801-5.615 0-2.698-1.935-4.216-5.253-4.216-3.218 0-5.129 1.638-5.129 4.385 0 .723.629 1.325 1.383 1.325s1.382-.602 1.382-1.325c0-1.35.956-2.024 2.364-2.024 1.608 0 2.538.675 2.538 1.855 0 2.554-4.876 2.747-4.876 5.783 0 .675.251 1.422.93 2.048zm.617 4.754c.999 0 1.545-.534 1.545-1.655 0-1.145-.546-1.705-1.545-1.705-.999 0-1.57.56-1.57 1.705 0 1.12.571 1.655 1.57 1.655z" fill-rule="evenodd"/></symbol><symbol id="i-baby-carriage" viewBox="0 0 32 32"><path d="M5 13c0 5.523 5.373 10 12 10 6.628 0 12-4.477 12-10H5zm.48-.893h1.537v-.005c-.055-2.268-1.365-4.987-4.275-5.101-.992-.04-.987 1.331 0 1.37 1.996.078 2.702 2.28 2.738 3.731v.005zM22.477 1.902c.267-.906-1.217-1.29-1.483-.387l-.055.189-2.969 10.102a.751.751 0 0 0-.029.194H30c-.012-4.51-3.015-8.34-7.586-9.886l.062-.212zM10 23c-2.206 0-4 1.794-4 4 0 2.205 1.794 4 4 4s4-1.795 4-4c0-2.206-1.794-4-4-4zm14 0c-2.205 0-4 1.794-4 4 0 2.205 1.794 4 4 4s4-1.795 4-4c0-2.206-1.794-4-4-4zm0 7c-1.654 0-3-1.346-3-3s1.346-3 3-3 3 1.346 3 3-1.346 3-3 3m-14 0c-1.654 0-3-1.346-3-3s1.346-3 3-3 3 1.346 3 3-1.346 3-3 3" fill-rule="evenodd"/></symbol><symbol id="i-band-aid" viewBox="0 0 32 32"><path d="M24.936 16.535l-8.625 8.51 3.291 3.306C20.737 29.529 22.47 30 23.877 30c1.407 0 3.177-.471 4.35-1.649 2.345-2.318 2.383-6.193 0-8.549l-3.291-3.267zm-9.247-9.472l-3.287-3.287A6 6 0 0 0 8.134 2C6.472 2 4.96 2.642 3.79 3.776c-2.38 2.342-2.38 6.196-.038 8.539l3.286 3.287 8.65-8.54zm.933.888L7.99 16.267l7.371 7.919 8.418-8.28-7.156-7.955zm-.148 5.249c-.36 0-.721-.124-1.001-.412-.521-.535-.561-1.44 0-1.976.28-.288.6-.412 1.001-.412.36 0 .722.124 1.002.412.52.535.52 1.44 0 1.976-.28.288-.641.412-1.002.412zm-4.669 1.867c.361 0 .723.162 1.004.405.521.569.521 1.461 0 1.989-.281.243-.603.406-1.004.406-.361 0-.723-.122-1.004-.406-.28-.284-.401-.609-.401-1.015 0-.365.16-.73.401-1.014a2.146 2.146 0 0 1 1.004-.365zm9.39-.528c.52.568.56 1.461 0 1.989-.281.243-.602.405-1.003.405-.36 0-.72-.121-1.001-.405-.521-.528-.521-1.42 0-1.989.28-.243.6-.406 1.001-.406.401 0 .722.163 1.002.406zM15.527 18.8c.362 0 .723.12 1.004.4.28.28.401.6.401 1 0 .36-.12.72-.401.96-.281.28-.602.4-1.004.44-.361 0-.722-.16-1.003-.4-.522-.56-.522-1.44 0-1.96a1.44 1.44 0 0 1 1.003-.44zm-11.71 9.433c-1.198-1.209-1.855-2.808-1.816-4.485 0-1.677.657-3.238 1.855-4.408L6.215 17l.812.82-2.358 2.34c-.967.936-1.47 2.223-1.508 3.588 0 1.365.541 2.652 1.47 3.627a5.062 5.062 0 0 0 3.633 1.522 5.156 5.156 0 0 0 3.633-1.483l2.358-2.301.812.82-2.358 2.3a6.36 6.36 0 0 1-4.445 1.834c-1.701 0-3.286-.663-4.446-1.834zM23.736 2c1.701 0 3.286.663 4.446 1.833 1.198 1.21 1.855 2.809 1.816 4.486a6.103 6.103 0 0 1-1.855 4.407l-2.358 2.34-.812-.818 2.358-2.34c.967-.937 1.47-2.224 1.508-3.59a5.262 5.262 0 0 0-1.47-3.627 5.062 5.062 0 0 0-3.633-1.52 5.156 5.156 0 0 0-3.633 1.481l-2.358 2.302-.812-.82 2.358-2.3A6.36 6.36 0 0 1 23.736 2z" fill-rule="evenodd"/></symbol><symbol id="i-birthday-cake" viewBox="0 0 32 32"><path d="M9 6h2v6H9V6zm1-1a1.5 1.5 0 0 1-1.5-1.5C8.5 2.672 10 1 10 1s1.5 1.672 1.5 2.5A1.5 1.5 0 0 1 10 5zm11 1h2v6h-2V6zm2.5-2.5a1.5 1.5 0 0 1-3 0C20.5 2.672 22 1 22 1s1.5 1.672 1.5 2.5zM15 6h2v6h-2V6zm2.5-2.321c0 .887-.672 1.607-1.5 1.607s-1.5-.72-1.5-1.607C14.5 2.79 16 1 16 1s1.5 1.791 1.5 2.679zm8.821 19.003c-.698-.704-1.421-1.434-2.108-1.434s-1.41.73-2.108 1.433c-.727.732-1.477 1.489-2.238 1.489-.762 0-1.512-.757-2.238-1.489-.7-.703-1.421-1.433-2.108-1.433-.688 0-1.41.73-2.11 1.433-.726.732-1.476 1.489-2.238 1.489-.76 0-1.51-.757-2.237-1.489-.698-.703-1.422-1.433-2.109-1.433-.538 0-1.098.45-1.652.982l.928 5.849c0 1.607 1.304 2.92 2.897 2.92H23.49c1.593 0 2.897-1.313 2.897-2.92l.789-4.584c-.288-.244-.572-.53-.854-.814zM4.55 21.15c.716-.747 1.456-1.52 2.206-1.52.752 0 1.492.773 2.207 1.52.69.722 1.403 1.468 2.08 1.468.678 0 1.39-.746 2.08-1.468.716-.747 1.455-1.52 2.207-1.52.751 0 1.49.773 2.206 1.52.69.722 1.402 1.468 2.08 1.468.677 0 1.391-.746 2.08-1.468.715-.747 1.455-1.52 2.206-1.52.752 0 1.492.773 2.208 1.52.688.722 1.402 1.468 2.079 1.468.004 0 .007 0 .01-.002 1.188-1.11.705-6.628.705-6.628 0-1.644-1.286-2.988-2.858-2.988H6.04c-1.572 0-2.858 1.344-2.858 2.988 0 0-.697 5.368.628 5.902.307.124.493-.484.738-.74z" fill-rule="evenodd"/></symbol><symbol id="i-calculator" viewBox="0 0 32 32"><path d="M5 2.993C5 1.893 5.89 1 6.991 1H25.01C26.109 1 27 1.9 27 2.993v25.014c0 1.1-.89 1.993-1.991 1.993H6.99C5.891 30 5 29.1 5 28.007V2.993zM8 18h4v2H8v-2zm0-3h4v2H8v-2zm6 3h4v2h-4v-2zm0-3h4v2h-4v-2zm6 3h4v2h-4v-2zm0-3h4v2h-4v-2zM8 21h4v2H8v-2zm6 0h4v2h-4v-2zm6 0h4v2h-4v-2zM8 24h4v2H8v-2zm6 0h4v2h-4v-2zm6 0h4v2h-4v-2zM8 6.006C8 4.898 8.895 4 9.994 4h12.012C23.107 4 24 4.887 24 6.006v2.988A2.001 2.001 0 0 1 22.006 11H9.994A1.993 1.993 0 0 1 8 8.994V6.006z" fill-rule="evenodd"/></symbol><symbol id="i-camping-trailer" viewBox="0 0 32 32"><path d="M16 11.5a.5.5 0 0 0-.5-.5h-7a.5.5 0 0 0-.5.5v4a.5.5 0 0 0 .5.5h7a.5.5 0 0 0 .5-.5v-4zm8 .5a3 3 0 0 0-6 0v11h6V12zm-3-1a1 1 0 1 0 0 2 1 1 0 0 0 0-2zm-2 11h4v-9.954C23 11.06 22.314 10 21 10c-1.098 0-2 1.035-2 2.046V22zm-7 2.876c.552 0 1-.445 1-.994a.997.997 0 0 0-1-.994c-.552 0-1 .445-1 .994 0 .549.448.994 1 .994zm0 1.987c1.657 0 3-1.335 3-2.981a2.99 2.99 0 0 0-3-2.981 2.99 2.99 0 0 0-3 2.981 2.99 2.99 0 0 0 3 2.981zM30 15v2c0 1.281-.548 2.744-1.485 4H31.5a.5.5 0 0 1 0 1h-3.863c-1.216 1.178-2.824 2-4.637 2h-7a4 4 0 0 0-7.999-.065C4.076 23.649 0 22.594 0 19 0 13 11 5 20 5c7 0 10 5 10 10z" fill-rule="evenodd"/></symbol><symbol id="i-checkbook" viewBox="0 0 32 32"><path d="M32 26.046V11.702c.036-.36-.28-.676-.64-.702l-11.858.018c-.27-.05-.496-.276-.496-.546l-.035-9.036c0-.45-.586-.676-.857-.316C12.841 7.115 8.464 9.584 5.13 11H.712c-.36.07-.676.386-.712.747v18.565c.018.36.333.676.694.676h30.648c.36 0 .625-.117.658-.488-.033-.35-.29-.533-.651-.5H4.712c-.27-.033-.496-.258-.496-.529l-.017.163c0-.27.243-.658.513-.634H31.35c.36-.024.66-.133.651-.5.01-.354-.254-.507-.614-.5l-26.637-.007a.5.5 0 0 1-.496-.496l-.018.163c0-.27.244-.659.514-.659l26.452-.013c.61-.015.805-.344.8-.942zm-1-.53c-.036.271-.261.496-.531.496l-26.123.009c-.135 0-.225-.09-.225-.226 0-.09.045-.18.18-.225 9.78-2.794 13.53-10.508 14.477-11.995.136-.225.226-.496.226-.721v-.36c0-.271.225-.496.496-.48L30.552 12c.27-.025.495.2.448.47v13.047z" fill-rule="evenodd"/></symbol><symbol id="i-circle-check" viewBox="0 0 32 32"><g fill-rule="evenodd"><path d="M16 32c8.837 0 16-7.163 16-16S24.837 0 16 0 0 7.163 0 16s7.163 16 16 16zm0-2c7.732 0 14-6.268 14-14S23.732 2 16 2 2 8.268 2 16s6.268 14 14 14z" fill="currentColor"/><path d="M21.76 10.181l-7.8 7.802a.624.624 0 0 1-.88 0l-2.84-2.841a.624.624 0 0 0-.88 0L8.18 16.32a.624.624 0 0 0 0 .88l4.9 4.897a.624.624 0 0 0 .879 0l9.859-9.859a.624.624 0 0 0 0-.88l-1.179-1.178a.624.624 0 0 0-.88 0z"/></g></symbol><symbol id="i-clock" viewBox="0 0 32 32"><g fill-rule="evenodd"><path d="M16 4.489c6.347 0 11.511 5.164 11.511 11.511 0 6.347-5.164 11.511-11.511 11.511-6.347 0-11.511-5.164-11.511-11.511C4.489 9.653 9.653 4.489 16 4.489zM16 2C8.253 2 2 8.253 2 16s6.253 14 14 14 14-6.253 14-14S23.747 2 16 2z"/><path d="M16 16v-6c0-.463 0-.994-1-1-1-.006-1 .551-1 1v7c0 .449.591 1 1 1h7c.409 0 .992-.017 1-1 .008-.983-.481-.985-1-1h-6z"/></g></symbol><symbol id="i-co-drops" viewBox="0 0 23 30"><path d="M22.63 18.261c-.398-3.044-2.608-6.61-4.072-9.359-1.74-3.271-3.492-5.994-5.089-8.62-1.599 2.623-3.75 6.117-5.487 9.385.391.718.495 1.011.889 1.816.143.294.535 1.111.696 1.43l.643-1.162c.278-.506.54-.981.791-1.451a91.452 91.452 0 0 1 2.469-4.33 93.253 93.253 0 0 1 2.468 4.33c.249.47.513.946.791 1.453 1.203 2.187 2.698 4.906 2.96 6.895.292 2.237-.259 4.312-1.556 5.839-1.171 1.376-2.824 2.179-4.663 2.263-1.841-.084-3.493-.887-4.665-2.263a6.666 6.666 0 0 1-.448-.599 5.004 5.004 0 0 1-1.735.365 5.1 5.1 0 0 1-1.599-.313c1.448 3.406 4.667 5.66 8.447 5.78 5.616-.183 9.999-5.075 9.16-11.459z"/><path fill="currentColor" d="M6.177 11.659c.212.367.424.747.635 1.136.164.303.333.606.512.927.683 1.225 1.618 2.898 1.755 3.937.144 1.073-.111 2.056-.716 2.769-.543.641-1.315 1.014-2.186 1.067-.87-.054-1.643-.43-2.186-1.067-.604-.713-.858-1.695-.715-2.771.137-1.036 1.072-2.712 1.755-3.936.18-.32.349-.623.513-.927.208-.39.42-.768.633-1.135m0-5.693c-1.02 1.649-2.138 3.363-3.247 5.419-.932 1.728-2.344 3.967-2.598 5.88-.535 4.014 2.261 7.09 5.846 7.203 3.583-.113 6.379-3.189 5.845-7.203-.255-1.912-1.666-4.152-2.598-5.88-1.111-2.056-2.229-3.768-3.248-5.419z"/></symbol><symbol id="i-cog" viewBox="0 0 32 32"><path d="M28.925 13.826h-1.293c-.592 0-1.221-.461-1.397-1.027l-.742-1.801c-.278-.52-.165-1.29.253-1.708l.917-.914c.42-.42.42-1.103 0-1.521l-1.525-1.522a1.081 1.081 0 0 0-1.523 0l-.918.915c-.418.418-1.19.532-1.712.252l-1.8-.74c-.565-.175-1.03-.802-1.03-1.393V3.075c0-.59-.486-1.075-1.076-1.075h-2.154a1.08 1.08 0 0 0-1.079 1.075v1.292c0 .591-.46 1.218-1.026 1.394l-1.805.739c-.523.282-1.292.168-1.71-.252l-.918-.915a1.081 1.081 0 0 0-1.523 0L5.34 6.855a1.076 1.076 0 0 0 0 1.52l.916.915c.418.418.534 1.187.252 1.708l-.74 1.803c-.178.565-.805 1.026-1.399 1.026l-1.291-.001A1.08 1.08 0 0 0 2 14.9v2.152a1.08 1.08 0 0 0 1.079 1.075H4.37c.594.002 1.221.464 1.396 1.028l.743 1.801c.28.52.166 1.292-.252 1.708l-.918.915a1.081 1.081 0 0 0 0 1.523l1.525 1.52c.42.419 1.105.419 1.523 0l.918-.914c.416-.418 1.187-.532 1.708-.25l1.807.741c.565.175 1.026.803 1.026 1.392v1.29c0 .59.485 1.073 1.079 1.073h2.154a1.08 1.08 0 0 0 1.077-1.073v-1.29c0-.59.464-1.217 1.028-1.392l1.805-.741c.523-.282 1.291-.168 1.711.25l.915.915a1.081 1.081 0 0 0 1.523 0l1.525-1.521c.42-.42.42-1.104 0-1.523l-.917-.915c-.418-.416-.531-1.187-.253-1.708l.742-1.8c.176-.565.807-1.027 1.397-1.027h1.293c.592 0 1.075-.484 1.075-1.075V14.9c0-.59-.483-1.075-1.075-1.075zm-8.606 2.064c0 2.576-2.036 4.66-4.547 4.66-2.512 0-4.548-2.084-4.548-4.66 0-2.574 2.036-4.66 4.548-4.66 2.51 0 4.547 2.086 4.547 4.66z" fill-rule="evenodd"/></symbol><symbol id="i-family" viewBox="0 0 32 32"><path d="M8 22v7H2v-7H0v-4c.003-2.09.945-3 3-3h4c2.055 0 3 .91 3 3v4H8zm13-1h-2v8h-6v-8l-1.99-.093L11 14v-1c0-1.171.782-2 2-2h5c1.522 0 3 .829 3 2v8zm7-12h-3c-1.496.015-3 .933-3 3v8h2v9h6v-9h2v-8c.001-2.067-1.503-2.985-3-3h-1zM5 14a3 3 0 1 0 0-6 3 3 0 0 0 0 6zm11-4a3 3 0 1 0 0-6 3 3 0 0 0 0 6zm11-2a3 3 0 1 0 0-6 3 3 0 0 0 0 6z" fill-rule="evenodd"/></symbol><symbol id="i-first-aid-kit" viewBox="0 0 32 32"><path d="M23 21h-5v5h-4v-5H9v-4h5v-5h4v5h5v4zM12 4h8v3h-8V4zm10 3V4c.143-1.306-.555-2-1-2H11c-.449 0-1.146.694-1 2v3H4c-1.063-.031-2 .807-2 1.5V28c0 1.306.7 2 2 2h24c1.3 0 2-.694 2-2V8.625C29.998 7.932 29.406 7 28 7h-6z" fill-rule="evenodd"/></symbol><symbol id="i-gavel" viewBox="0 0 32 32"><path d="M30 24.413V23H14v1.413h-.917c-.598 0-1.083.582-1.083 1.294-.006.722.485 1.296 1.083 1.293h17.828c.6.009 1.096-.571 1.089-1.289 0-.716-.488-1.298-1.088-1.298H30zM19.096 19.33c.544.547 1.327.63 1.765.192l5.557-5.595c.442-.433.354-1.23-.189-1.771-.542-.543-1.336-.633-1.765-.193l-5.565 5.598c-.436.436-.346 1.23.197 1.77zM7.564 8.648c.544.549 1.332.63 1.764.189l5.561-5.593c.437-.436.354-1.233-.189-1.774-.541-.541-1.336-.63-1.766-.188L7.371 6.875c-.434.441-.348 1.23.193 1.773zm8.323-4.977l-5.612 5.647 2.574 2.578L.398 24.399a1.415 1.415 0 0 0-.398.984c0 .173.035.338.091.491.144.39.45.696.837.84.152.055.315.09.487.09.366 0 .696-.143.947-.372l12.464-12.546 2.8 2.811 5.605-5.646-7.344-7.38z" fill-rule="evenodd"/></symbol><symbol id="i-graduation" viewBox="0 0 32 32"><path d="M16 4L0 12.462l16 8.461 9.263-4.706v6.398C25.263 26 28.63 26 28.63 26v-1.692s-1.684-.097-1.684-1.693v-7.351L32 12.462 16 4zM8 18.671V22.6c0 .894.54 2.092 1.663 2.7L16 28l4.985-2.497c1.123-.607 2.089-1.851 2.01-2.742v-3.588L16 22.937l-8-4.266z" fill-rule="evenodd"/></symbol><symbol id="i-happy-calendar" viewBox="0 0 32 32"><path d="M2 4.005C2 2.898 2.9 2 3.991 2H28.01C29.109 2 30 2.894 30 4.005V7H2V4.005zM8 2h4v2c0 1.105-.888 2-2 2-1.105 0-2-.888-2-2V2zm12 0h4v2c0 1.105-.888 2-2 2-1.105 0-2-.888-2-2V2zM2 8h28v20.009c0 1.1-.9 1.991-1.991 1.991H3.99A1.99 1.99 0 0 1 2 28.009V8zm2 2h24v16.005A2 2 0 0 1 25.995 28H6.005A2 2 0 0 1 4 26.005V10zm14.87 4c.553 0 1 .895 1 2s-.447 2-1 2c-.552 0-1-.895-1-2s.448-2 1-2zm-6 0c-.552 0-1 .895-1 2s.448 2 1 2c.553 0 1-.895 1-2s-.447-2-1-2zm2.987 9.089c-3.452 0-5.405-.074-5.941-2.845H8.843c.481 3.82 2.917 4.695 7.014 4.695s6.532-.875 7.014-4.695h-1.072c-.537 2.771-2.49 2.845-5.942 2.845zM21 2.009C21 1.452 21.453 1 22 1a1 1 0 0 1 1 1.01V5h-2V2.01zm-12 0a1 1 0 1 1 2 0V5H9V2.01z" fill-rule="evenodd"/></symbol><symbol id="i-holiday" viewBox="0 0 32 32"><path d="M16 32c8.837 0 16-7.163 16-16S24.837 0 16 0 0 7.163 0 16s7.163 16 16 16zM7.723 10.014l-1.997.28.45 1.714 1.877-.33-.33-1.664zm5.981-4.981l-.282-1.665-1.712.28.384 1.715 1.61-.33zm12.634 7.64l-1.997.28.449 1.715 1.878-.33-.33-1.665zm-9.975 9.909l1.322 1.06 1.005-1.475-1.355-1.184-.972 1.599zm3.683 2.716l1.26.01.044-1.266-1.33-.064.026 1.32zm6.666-4.686l-1.12-.925-.874 1.161 1.094.833.9-1.069zm-6.436-8.844c.475-.084.923-.164 1.282-.27 1.06-.313 1.567-1.235 1.808-2.094.26-.632.553-1.757-.02-2.842-.767-1.451-2.801-2.303-6.047-2.53a.257.257 0 0 0-.228.105l-1.634 2.296a.243.243 0 0 0-.016.256.257.257 0 0 0 .226.133c.046 0 4.473.018 6.27 1.495-.445.182-.993.26-1.496.26-.052 0-5.188.074-6.08 2.624-.638 1.828-.129 3.457.219 4.246.046.138.098.28.158.421.572 1.348 1.523 1.98 2.715 1.803.606-.092 1.062-.134 1.431-.134.639 0 1.058.124 1.32.39.282.286.405.767.376 1.469a.247.247 0 0 0 .14.232.261.261 0 0 0 .275-.03l2.267-1.811a.25.25 0 0 0 .09-.154c.008-.05.182-1.23-.51-2.016-.465-.528-1.194-.745-2.16-.642-.356.038-.7.078-1.034.117-.965.113-1.798.21-2.515.21-.632 0-1.116-.079-1.485-.254.285-2.502 2.687-2.931 4.648-3.28zm-4.449 12.67c-.006.003-.717.19-1.387.19-.5 0-.837-.107-.926-.294-.197-.415.512-1.391 1.08-2.175.867-1.193 1.849-2.546.789-3.347-.422-.319-1.008-.48-1.74-.48-1.218 0-2.558.441-3.105.642.024-.906 1.46-3.253 2.594-4.79a.244.244 0 0 0 .027-.243.253.253 0 0 0-.198-.15l-3.216-.45a.253.253 0 0 0-.263.133c-1.624 3.12-2.118 5.108-1.51 6.075.253.405.699.62 1.288.62.783 0 1.588-.372 1.622-.388.004-.001.006-.003.009-.005.418-.092.764-.14 1.028-.14.296 0 .438.058.472.114.186.294-.406 1.427-.839 2.253-.564 1.081-1.205 2.306-1.24 3.33-.022.666.165 1.203.555 1.597.46.466 1.175.702 2.124.702.806 0 1.5-.174 1.53-.182a.426.426 0 0 0 .244-.17l1.526-2.21a.407.407 0 0 0-.007-.473.428.428 0 0 0-.457-.159zm-.688-10.435a4.703 4.703 0 0 1 .15-2.522c.537-1.528 3.842-2.044 5.266-2.044.371 0 1.281-.044 2.045-.42.031.059.056.119.08.18-.18.652-.535 1.324-1.235 1.53-.312.09-.718.162-1.186.245-1.69.298-4.316.762-5.12 3.03zm-1 12.842a6.572 6.572 0 0 1-1.204.122c-.503 0-1.184-.078-1.563-.45-.234-.23-.341-.554-.326-.993.03-.84.643-1.977 1.184-2.98.716-1.327 1.281-2.374.834-3.067a.919.919 0 0 0-.09-.117c.213-.024.427-.039.634-.039.558 0 .983.104 1.262.308.429.313-.326 1.322-.992 2.212-.83 1.107-1.613 2.153-1.197 3.004.252.515.84.777 1.75.777a5.8 5.8 0 0 0 .603-.034l-.896 1.257z" fill-rule="evenodd"/></symbol><symbol id="i-home" viewBox="0 0 32 32"><path d="M26 11V4c-.41.186-3 0-3 0-.253 0-.439.186-1 0v4l-6-4c.096.015-14 9-14 9 .087.69.023.783 0 1-.012.003 2 3 2 3 .006-.038.135.025 1 0-.652.025 1-1 1-1v12h7v-7.003A2 2 0 0 1 14.998 19h2.004c1.104 0 1.998.896 1.998 1.997V28c2.862-.005 7 0 7 0V16l1 1c.685.083.945.038 1 0l2-3c-.024-.216-.087-.31 0-1l-4-2z" fill-rule="evenodd"/></symbol><symbol id="i-joining-hands" viewBox="0 0 32 32"><path d="M25.805 19.064c-.199.21-.487.33-.793.33-.288 0-.554-.104-.75-.29l-1.81-1.698a.687.687 0 0 0-.41-.136.698.698 0 0 0-.426 1.247l1.634 1.555a1.1 1.1 0 0 1 .039 1.55 1.09 1.09 0 0 1-.793.33c-.287 0-.554-.103-.75-.29L20 19.976v.001a.694.694 0 0 0-.47-.185.698.698 0 0 0-.503 1.18l-.002.002 1.696 1.62c.431.416.447 1.11.036 1.546a1.093 1.093 0 0 1-.793.328c-.288 0-.554-.103-.75-.29l-1.724-1.633a.69.69 0 0 0-.496-.208.698.698 0 0 0-.468 1.213l1.676 1.598c.435.417.453 1.113.04 1.55-.199.21-.488.33-.794.33-.288 0-.554-.103-.75-.29l-1.707-1.632.102-.105a1.299 1.299 0 0 0-.022-1.832c-.51-.5-1.326-.49-1.825.021l-.058.06-.002-.002a.07.07 0 0 1-.122-.046.07.07 0 0 1 .026-.055l.052-.052a1.299 1.299 0 0 0-.022-1.832c-.51-.5-1.326-.49-1.825.022l-.061.063-.001-.002a.073.073 0 0 1-.043.017.07.07 0 0 1-.07-.07c0-.017.006-.03.015-.042l-.001-.002.006-.005c0-.002.001-.003.002-.003l.05-.053a1.3 1.3 0 0 0-.022-1.832c-.51-.5-1.326-.49-1.825.022l-.067.064a.068.068 0 0 1-.054.029.07.07 0 0 1-.07-.07c0-.023.01-.042.026-.054l.062-.064a1.3 1.3 0 0 0-.023-1.833c-.51-.5-1.326-.489-1.825.023l-.066.068-1.796-1.747c-.018-.015-1.336-1.179-1.948-3.706l.014-.006a6.264 6.264 0 0 1-.158-1.379c0-3.45 2.797-6.257 6.234-6.257.512 0 1.007.069 1.484.186 1.22.336 2.614.952 3.848 2.084l-6.346 6.308a1.333 1.333 0 0 0 .909 2.305c.037 0 .072-.008.11-.011l.002.006.087-.015c.035-.005.069-.01.103-.017 1.056-.21 3.048-2.339 4.861-3.478 1.023-.634 1.632-.834 2.754-.834.935 0 1.784.356 2.43.936.077.058.158.128.249.218l3.88 3.74-.002.003 1.687 1.621c.437.417.49 1.129.076 1.565M30 10.704C30 6.45 26.564 3 22.326 3a7.642 7.642 0 0 0-6.018 2.931l-.041.019c-1.302-1.301-2.774-2.064-4.12-2.513.007-.004.012-.01.018-.013A7.577 7.577 0 0 0 9.675 3C5.436 3 2 6.45 2 10.705c0 .785.119 1.541.336 2.255a.04.04 0 0 1 .006-.006c.609 2.193 1.86 3.569 2.25 3.908l1.658 1.591.1.096-.104.106a1.298 1.298 0 0 0 .023 1.832c.51.5 1.326.49 1.824-.022l.107-.107a.066.066 0 0 1 .044-.017c.039 0 .07.031.07.071 0 .016-.006.03-.016.042l.001.002-.102.105a1.297 1.297 0 0 0 .022 1.831c.51.5 1.326.49 1.825-.022l.1-.1a.07.07 0 0 1 .123.045.067.067 0 0 1-.017.045l-.001.003c-.002 0-.003.003-.004.004l-.098.1a1.298 1.298 0 0 0 .023 1.83c.51.5 1.326.491 1.824-.02l.105-.11.002.003a.07.07 0 0 1 .043-.016c.039 0 .07.031.07.07 0 .017-.006.03-.015.042h.001l-.006.007-.002.003-.095.097a1.298 1.298 0 0 0 .022 1.832c.51.5 1.327.49 1.825-.023l.121-.124-.034.044 1.715 1.64c.462.44 1.066.683 1.702.683h.033a2.454 2.454 0 0 0 1.76-.772c.45-.475.69-1.121.668-1.788.027.001.056.002.09.001a2.443 2.443 0 0 0 1.757-.77c.447-.473.684-1.09.673-1.749l.1.002a2.452 2.452 0 0 0 1.76-.771c.45-.476.69-1.122.669-1.789.027.001.064.003.088.002a2.447 2.447 0 0 0 1.758-.772 2.49 2.49 0 0 0 .164-3.224C28.755 15.384 30 13.161 30 10.705" fill-rule="evenodd"/></symbol><symbol id="i-medal" viewBox="0 0 32 32"><path d="M18.493 17.84l-2.347-4.688c3.498.062 6.448 2.313 7.503 5.425l-5.156-.738zm5.576 3.258c0 2.58-1.252 4.866-3.182 6.319l-.853-4.905 3.725-3.579c.197.69.31 1.414.31 2.165zM16 29.052a8.112 8.112 0 0 1-4.47-1.334L16 25.4l4.47 2.317A8.11 8.11 0 0 1 16 29.052zm-8.069-7.954c0-.751.114-1.475.31-2.165l3.726 3.58-.853 4.904c-1.931-1.453-3.183-3.738-3.183-6.319zm7.923-7.946l-2.347 4.687-5.155.739c1.056-3.113 4.005-5.364 7.502-5.426zM16 11c-5.523 0-10 4.477-10 10s4.477 10 10 10 10-4.477 10-10-4.477-10-10-10zM6 1v2.292L16 10l10-6.708V1H6z" fill-rule="evenodd"/></symbol><symbol id="i-palm-trees" viewBox="0 0 32 32"><path d="M21.656 22.181l.379-1.094-.454-.033.603-1.198-.562-.094.852-1.023-.563-.206.986-.897-.495-.317 1.253-.8-.503-.31 1.147-.584-.639-.529 1.314-.467-.362-.32.816-.35-.353-.296.448-.166c.126.118.267.256.416.406l.86-.015-.563.313a14.275 14.275 0 0 1 .594.693l.758-.077-.534.383c.226.326.433.678.613 1.01l.577-.234-.43.508c.32.623.522 1.113.522 1.113s1.227-1.38.535-2.844c-.694-1.464-2.149-1.974-2.149-1.974l.881-.198.733-.35-.363.428c.053.004.298.045.355.05.31.03.422.092.866.227l.579-.322-.153.458c.701.233 1.312.475 1.312.475s-.483-1.684-1.918-2.059c-1.163-.302-2.665.058-2.665.058s.049-.933-1.135-2.071c-.87-.835-2.662-.7-2.662-.7s.432.386.885.84l.892.168-.536.197c.084.091.22.25.292.337.18.22.37.51.478.724l.49-.007-.365.335c.097.248.138.417.138.417s-1.627-1.187-3.58-1.102c-1.234.054-3.151 1.225-3.581 1.497.167-.071.658-.195 2.07-.275l.275-.476.168.457c1.016-.019 1.794.144 2.32.313l.1-.479.156.569c.36.136.544.254.544.254s-1.16.165-2.024 1.095c-.578.623-.92 1.542-.92 1.542s.93-.828 2.047-1.137l.114-.428.303.2c.365-.19.894-.426 1.192-.517l.124-.37.151.269c.349-.081.641-.098.754-.101l-.124.431-.427-.359-.232.827-.5-.441-.296 1.376-.615-.51-.11 1.53-.756-.467.069 1.609-.859-.55.15 1.78-.8-.293.395 1.616-.625-.106.638 1.47-.665-.048.67 1.179-.617-.036.327.671c-1.372-.128-2.553-.287-4.11-.13l.885-1.559-.99.07.948-2.186-.93.158.587-2.405-1.187.436.221-2.648-1.278.819.102-2.395-1.124.695-.161-2.275-.918.758-.44-2.048-.742.656-.344-1.23-.637.534-.207-.721a43.917 43.917 0 0 1 1.726-.258l.953-1.12-.16 1.015a32.675 32.675 0 0 1 1.745-.12l.744-1.046-.02 1.042a25.05 25.05 0 0 1 2.252.15l.297-.958.29 1.026a34.75 34.75 0 0 1 2.307.364s-.725-2.863-3.768-3.333c-3.04-.47-5.48.928-5.48.928l.697-1.318.295-1.268.248.864c.064-.065.406-.341.48-.41.398-.371.62-.457 1.334-.902l.163-1.043.532.621c1.154-.685 2.22-1.244 2.22-1.244s-3.139-.946-5.345.551c-1.791 1.215-2.945 3.482-2.945 3.482s-1.38-.931-4.479-.465C2.148 6.205.318 8.635.318 8.635s1.087-.197 2.3-.356l1.273-.993-.307.872c.236-.022.638-.05.852-.06a9.958 9.958 0 0 1 1.658.057l.545-.636.1.78c.492.107.8.212.8.212s-3.68.989-5.77 3.581C.45 13.728.07 17.282 0 18.09c.082-.283.449-1.027 1.931-2.919l-.418-.795.895.208c1.125-1.324 2.262-2.174 3.12-2.694l-.626-.572 1.053.327a6.82 6.82 0 0 1 1.012-.464s-1.069 1.646-.618 3.62c.302 1.325 1.326 2.62 1.326 2.62s-.216-1.967.578-3.692l-.527-.545.649-.205c.123-.643.363-1.545.562-2.013l-.428-.501.585.055c.12-.23.246-.434.36-.606l.85.314-.525.44 1.215.522-.539.476 1.954.695-.949.785 1.705.87-.748.462 1.865 1.19-.737.471 1.468 1.335-.838.307 1.267 1.521-.836.142.897 1.781-.675.048.516 1.491c-6.699.785-10.434 3.855-11.891 5.351a2.724 2.724 0 0 0 3.922-.167c.5.562 1.23.919 2.044.919.815 0 1.543-.357 2.043-.919.5.562 1.23.919 2.043.919.814 0 1.544-.357 2.044-.919.499.562 1.229.919 2.042.919.815 0 1.544-.357 2.044-.919a2.725 2.725 0 0 0 2.044.919c.814 0 1.543-.357 2.042-.919.5.562 1.229.919 2.044.919.814 0 1.544-.357 2.043-.919a2.725 2.725 0 0 0 3.925.165c-1.523-1.382-5.004-4.102-9.766-5.134l.344-.758-.655-.039z" fill-rule="evenodd"/></symbol><symbol id="i-paper-airplane" viewBox="0 0 32 32"><path d="M1 13.869l6.823 5.4-.015 7.601 5.44-3.673-1.922-1.863 7.551 5.536L31 7.469l-30 6.4zM28.309 9.3L11.734 20.086l-2.703 4.68.042-5.946L28.309 9.3z" fill-rule="evenodd"/></symbol><symbol id="i-plus-minus" viewBox="0 0 32 32"><path d="M6 10V5h3v5h5v3H9v5H6v-5H1v-3h5zm.928 15.26l-1.116 1.116 2.233 2.233 1.116-1.116L28.186 8.469l1.116-1.117-2.233-2.233-1.116 1.117L6.928 25.26zM21.571 25H31v-3H20v3h1.571z" fill-rule="evenodd"/></symbol><symbol id="i-question-mark" viewBox="0 0 32 32"><path d="M16 32c8.837 0 16-7.163 16-16S24.837 0 16 0 0 7.163 0 16s7.163 16 16 16zm0-2c7.732 0 14-6.268 14-14S23.732 2 16 2 2 8.268 2 16s6.268 14 14 14zm5.83-19.01c0-2.556-2.187-4.46-5.767-4.46-2.017 0-4.517.767-5.54 2.244a1.407 1.407 0 0 0-.2.768c0 .852.654 1.42 1.422 1.42.369 0 .71-.113.994-.312.795-.682 1.761-1.108 2.955-1.108 1.847 0 2.67.937 2.67 2.017 0 2.358-4.545 2.727-4.545 6.194 0 1.278.738 2.557 1.846 2.557.853 0 1.336-.682 1.336-1.307 0-.341-.2-.569-.2-.966 0-2.5 5.03-2.841 5.03-7.046zm-3.92 13.07c0-1.108-.91-2.017-2.017-2.017-1.08 0-2.018.909-2.018 2.017 0 1.08.938 2.017 2.018 2.017 1.108 0 2.017-.937 2.017-2.017z" fill-rule="evenodd"/></symbol><symbol id="i-record-time" viewBox="0 0 32 32"><path d="M22.525 12.682c.83-.798 1.59-1.52 2.223-2.105C22.913 6.692 18.975 4 14.424 4 8.124 4 3 9.159 3 15.5c0 5.217 3.469 9.634 8.206 11.036l.572-2.83A8.623 8.623 0 0 1 5.856 15.5c0-4.763 3.836-8.625 8.568-8.625 3.752 0 6.94 2.427 8.1 5.807zm-3.537-.957l-3.036 3.058a1.869 1.869 0 0 1-1.8 2.324c-.696 0-1.295-.478-1.614-.946H9.97c-.256 0-.465-.233-.465-.49v-.891c0-.257.209-.49.465-.49h2.568c.32-.468.918-.947 1.614-.947.183 0 .357.046.525.097l3.01-3.029a.464.464 0 0 1 .657 0l.644.652a.47.47 0 0 1 0 .662zm9.778 5.42c.945-.947.896-2.533-.111-3.543-1.172-1.174-2.792-.852-3.531-.11l-.347.348 3.643 3.653.346-.349zm-14.507 7.242l-1.172 4.827 4.816-1.175-3.644-3.652zm.814-.789l3.642 3.654 8.863-8.89-3.643-3.652-8.862 8.888z" fill-rule="evenodd"/></symbol><symbol id="i-reload" viewBox="0 0 32 32"><path d="M6.01 7.635c4.147-4.942 11.488-6.002 16.925-2.537 1.258-1.414 3.051-4.096 3.051-4.096.046 1.523 0 10.976 0 10.976h-9.665s3.656-3.365 4.21-4.047c-3.88-2.192-8.81-1.354-11.69 2.079-3.291 3.922-2.759 9.808 1.188 13.12 3.948 3.312 9.837 2.814 13.128-1.108a1.842 1.842 0 0 1 2.592-.217c.781.656.887 1.818.237 2.592C21.394 29.87 13.18 30.56 7.671 25.94c-5.507-4.62-6.253-12.832-1.66-18.305z" fill-rule="evenodd"/></symbol><symbol id="i-request-time" viewBox="0 0 32 32"><path d="M9.758 20.048l4.62 3.657-.01 5.148 3.684-2.488-1.301-1.261 5.113 3.749 8.21-13.14-20.316 4.335zm18.494-3.094l-11.225 7.304-1.83 3.17.028-4.027 13.027-6.447zm-6.737-1.706l2.77-.651C23.962 8.698 19.092 4 13.153 4 7.002 4 2 9.036 2 15.225c0 5.79 4.378 10.571 9.976 11.164l-.28-1.37-2.049-2.147a8.424 8.424 0 0 1-4.86-7.647c0-4.65 3.745-8.419 8.365-8.419 4.619 0 8.363 3.77 8.363 8.42v.022zm-3.527-3.523l-3.036 3.058a1.869 1.869 0 0 1-1.8 2.324c-.696 0-1.295-.478-1.614-.946H8.97c-.256 0-.465-.233-.465-.49v-.891c0-.257.209-.49.465-.49h2.568c.32-.468.918-.947 1.614-.947.183 0 .357.046.525.097l3.01-3.029a.464.464 0 0 1 .657 0l.644.652a.47.47 0 0 1 0 .662z" fill-rule="evenodd"/></symbol><symbol id="i-reverse-time" viewBox="0 0 32 32"><g fill-rule="evenodd"><path d="M18 16v-6c0-.463 0-.994-1-1-1-.006-1 .551-1 1v7c0 .449.591 1 1 1h7c.409 0 .992-.017 1-1 .008-.983-.481-.985-1-1h-6z"/><path d="M4.23 13.448A13.982 13.982 0 0 1 18 2c7.747 0 14 6.253 14 14s-6.253 14-14 14c-3.448 0-6.6-1.239-9.037-3.297.176-.275.393-.505.659-.666.366-.221 1.183-.325 2.15-.36A11.443 11.443 0 0 0 18 27.51c6.347 0 11.511-5.164 11.511-11.511 0-6.347-5.164-11.511-11.511-11.511-4.46 0-8.336 2.55-10.246 6.268-.283.955-.64 2.136-1.081 3.562l3.013-2.44a1.104 1.104 0 0 1 1.584 0 1.16 1.16 0 0 1 0 1.617L6.204 17.74c-.437.447-1.334.447-1.79-.018L.354 13.55a1.16 1.16 0 0 1-.05-1.616 1.104 1.104 0 0 1 1.584-.05l2.207 2.268c.041-.243.087-.478.136-.704z"/></g></symbol><symbol id="i-selfie" viewBox="0 0 32 32"><path d="M16 30c7.732 0 14-6.268 14-14S23.732 2 16 2 2 8.268 2 16s6.268 14 14 14zm0-1.867c6.701 0 12.133-5.432 12.133-12.133 0-6.701-5.432-12.133-12.133-12.133C9.299 3.867 3.867 9.299 3.867 16c0 6.701 5.432 12.133 12.133 12.133zm.038-8.4c-3.403 0-5.891 1.056-7.505 2.84 1.792 2.258 4.489 3.694 7.505 3.694 2.974 0 5.637-1.49 7.429-3.693-1.675-1.842-4.201-2.84-7.43-2.84zM16 18.8a5.6 5.6 0 1 0 0-11.2 5.6 5.6 0 0 0 0 11.2z" fill-rule="evenodd"/></symbol><symbol id="i-teddy-bear" viewBox="0 0 32 32"><path d="M24.946 19.382c-1.016-1.886-2.587-3.223-3.794-3.906a8.735 8.735 0 0 1-.926.599c1.164 1.133 2.022 2.704 2.422 4.565 1.337.6 2.41 1.978 2.905 3.7.169-.121.295-.3.377-.533.379-1.082-.245-3.052-.984-4.425zM8.396 20.64c.4-1.862 1.258-3.432 2.421-4.565-.32-.181-.63-.38-.925-.598-1.207.682-2.777 2.019-3.794 3.906-.74 1.372-1.363 3.342-.984 4.424.082.233.209.412.378.534.494-1.724 1.568-3.103 2.904-3.701zm7.53 6.544a5.128 5.128 0 0 1 .19-2.421 7.249 7.249 0 0 1 1.97-3.087c.084-.077.17-.15.256-.22.874-.714 1.594-1.202 2.594-1.202.152 0 .304.01.451.03.217.03.428.087.634.157-.413-1.75-1.122-2.872-2.237-3.93-1.321.685-2.55 1.12-4.142 1.12-1.589 0-2.726-.453-4.047-1.138-1.114 1.056-2.445 2.265-2.858 4.014.052-.018.483-.12.536-.136.155-.046.313-.083.473-.106 1.14-.15 1.947.368 2.955 1.191.087.07.172.145.256.221a7.246 7.246 0 0 1 1.97 3.086c.262.794.318 1.623.191 2.421-.017.112-.032.224-.057.334-.065.282-.16.556-.273.825-.041.1-.083.199-.131.296.076.002.148.008.226.008.211 0 .427-.005.632-.016.299.015.59.018.874.013-.05-.1-.092-.2-.134-.302a5.13 5.13 0 0 1-.272-.824c-.026-.11-.04-.222-.058-.334zM6.671 8.235c.167.128.342.232.52.326-.264 2.002.455 4 1.862 5.526a8.36 8.36 0 0 0 .289.298c.297.291.62.562.968.809l.006.004c.112.08.227.157.344.232l.014.01c.114.071.23.14.349.208l.026.015c.114.065.232.127.35.187l.039.02c.114.056.23.11.347.162.019.009.037.018.057.026.111.049.225.094.34.138l.078.031c.11.042.223.08.337.118.031.01.061.022.093.031.11.035.222.066.334.097.036.01.072.022.11.031.107.029.218.053.33.078l.125.03c.107.021.217.04.325.058.048.008.094.018.142.025.107.017.217.03.326.042l.152.02c.112.01.227.018.341.026.05.003.097.008.147.01.164.009.33.013.498.013h.003c.168 0 .334-.005.499-.012.05-.003.1-.008.149-.012.113-.007.227-.014.339-.026.05-.005.1-.013.151-.019.11-.013.219-.025.327-.042.046-.007.091-.017.137-.025.11-.019.221-.037.33-.06.042-.008.082-.019.123-.028.112-.025.223-.05.332-.078l.103-.03a8.3 8.3 0 0 0 .341-.099l.081-.028c.119-.039.236-.078.35-.121l.06-.024c.121-.046.241-.094.358-.145l.044-.02c.121-.055.242-.11.36-.169l.028-.015c.122-.061.243-.125.36-.192l.014-.007c.123-.07.243-.142.361-.217l.002-.001a8.137 8.137 0 0 0 1.619-1.35c1.406-1.528 2.124-3.525 1.86-5.526.18-.094.355-.199.521-.326 1.683-1.286 2.067-3.78.86-5.57C24.023.873 21.68.463 20 1.748c-.196.15-.37.32-.53.5a8.365 8.365 0 0 0-3.947-1.04 8.371 8.371 0 0 0-3.948 1.04 3.81 3.81 0 0 0-.529-.5C9.363.465 7.02.874 5.814 2.665c-1.209 1.79-.825 4.284.858 5.57zm8.85.626c1.318 0 2.534.522 3.25 1.397.513.625.718 1.36.58 2.07-.32 1.654-1.966 2.908-3.83 2.919-1.864-.01-3.51-1.265-3.829-2.919-.139-.71.067-1.444.58-2.07.716-.875 1.93-1.397 3.25-1.397zm5.713-5.835c.866-.661 2.07-.45 2.69.47.621.92.424 2.203-.441 2.865-.064.048-.13.091-.198.13a8.493 8.493 0 0 0-2.322-3.21c.082-.092.171-.179.271-.255zm-3.184 3.018c.365 0 .66.44.66.983 0 .542-.295.982-.66.982-.364 0-.66-.44-.66-.982 0-.543.296-.983.66-.983zm-5.058 0c.364 0 .66.44.66.983 0 .542-.296.982-.66.982-.364 0-.66-.44-.66-.982 0-.543.296-.983.66-.983zM7.12 3.496c.62-.92 1.825-1.131 2.69-.47.1.076.189.163.271.255a8.496 8.496 0 0 0-2.322 3.21 1.856 1.856 0 0 1-.198-.13c-.865-.662-1.062-1.944-.441-2.865zm14.5 17.242a3.031 3.031 0 0 0-.397-.026c-1.951 0-3.942 1.755-4.735 4.173a4.704 4.704 0 0 0 .461 3.966c.723 1.165 1.886 1.911 3.276 2.103 1.49.204 2.932-.294 3.943-1.359a4.74 4.74 0 0 0 1.285-3.475c-.125-2.77-1.773-5.085-3.832-5.382zm-1.202 8.655c-.965-.133-1.772-.651-2.273-1.459a3.265 3.265 0 0 1-.32-2.751c.55-1.678 1.93-2.895 3.285-2.895.093 0 .186.006.276.017 1.429.207 2.572 1.813 2.658 3.734a3.29 3.29 0 0 1-.89 2.411 3.148 3.148 0 0 1-2.736.943zm-5.86-4.507c-.793-2.419-2.784-4.174-4.735-4.174-.135 0-.27.009-.4.026-2.057.297-3.705 2.611-3.83 5.382a4.74 4.74 0 0 0 1.284 3.474A4.479 4.479 0 0 0 10.154 31c.22 0 .444-.016.666-.046 1.39-.192 2.553-.938 3.276-2.103a4.705 4.705 0 0 0 .46-3.965zm-4.39 4.538c-.87 0-1.678-.346-2.275-.974A3.29 3.29 0 0 1 7 26.039c.087-1.922 1.23-3.527 2.657-3.733.092-.013.184-.019.278-.019 1.353 0 2.735 1.218 3.285 2.896.305.928.189 1.93-.32 2.75-.502.809-1.309 1.326-2.273 1.459-.155.022-.31.032-.462.032zm5.355-15.19c1.116 0 2.076-.534 2.507-1.395a.158.158 0 1 0-.281-.142c-.355.71-1.135 1.16-2.056 1.21V12.06c.482-.07 1.056-.526 1.298-1.073.232-.583-.462-1.05-1.517-1.04-1.057.01-1.688.496-1.388 1.086.278.5.811.91 1.269 1.013v1.861c-.922-.05-1.702-.5-2.057-1.21a.158.158 0 1 0-.281.142c.43.86 1.39 1.395 2.506 1.395z" fill-rule="evenodd"/></symbol><symbol id="i-time-off-calendar" viewBox="0 0 32 32"><path d="M2 16.668V9h28v19.005C30 29.107 29.11 30 28.004 30H15.332a9.555 9.555 0 0 0 1.915-2h8.748A2.002 2.002 0 0 0 28 26V11H4v3.753a9.555 9.555 0 0 0-2 1.915zm13-1.915V13h-3v.332a9.46 9.46 0 0 1 3 1.421zm-5-1.74V13H7v.332a9.511 9.511 0 0 1 3-.32zM17.869 18H20v3h-1.118a9.434 9.434 0 0 0-1.013-3zm1.118 5H20v3h-1.666a9.455 9.455 0 0 0 .653-3zM2 5.005C2 3.898 2.9 3 3.991 3H28.01C29.109 3 30 3.894 30 5.005V8H2V5.005zM8 3h4v2c0 1.105-.888 2-2 2-1.105 0-2-.888-2-2V3zm12 0h4v2c0 1.105-.888 2-2 2-1.105 0-2-.888-2-2V3zm2 10h3v3h-3v-3zm-5 0h3v3h-3v-3zm5 5h3v3h-3v-3zm0 5h3v3h-3v-3zM9.5 30c4.115.059 7.456-3.269 7.5-7.39v-.08C17 18.37 13.642 15 9.5 15 5.358 15 2 18.371 2 22.53c0 4.158 3.358 7.529 7.5 7.47zm-.05-1.648c3.203 0 5.8-2.607 5.8-5.823 0-3.215-2.597-5.822-5.8-5.822s-5.8 2.607-5.8 5.822c0 3.216 2.597 5.823 5.8 5.823zM10 19H8.973l.015 4h3.984l-.03-1H10v-3zM9 3.01a1 1 0 1 1 2 0V6H9V3.01zm12 0c0-.558.453-1.01 1-1.01a1 1 0 0 1 1 1.01V6h-2V3.01z" fill-rule="evenodd"/></symbol><symbol id="i-time-off-luggage" viewBox="0 0 32 32"><path d="M14 8.884V7.156C14.122 5.178 15.674 4 17.654 4h4.79c1.98 0 3.434 1.178 3.556 3.156V9h-2V7.784C24 6 22.443 6.207 21.784 6h-3.47C17.651 6.207 16 6 16 7.784V9h-1.797H28v18H16.314c2.083-1.946 3.44-4.675 3.492-7.625.08-4.567-2.253-8.414-5.603-10.375zM29.5 9H29v18h.5c1.374-.437 2.5-1.776 2.5-3.375V11.812C32 10 29.5 9 29.5 9zM9 28a9 9 0 1 0 0-18 9 9 0 0 0 0 18zm0-1.5a7.5 7.5 0 1 0 0-15 7.5 7.5 0 0 0 0 15zM10 14H9v5h5v-1h-4v-4z" fill-rule="evenodd"/></symbol><symbol id="i-user" viewBox="0 0 32 32"><g fill-rule="evenodd"><path d="M1.733 31.93h28.431c0-6.33-6.508-10.597-14.447-10.597-7.94 0-13.984 4.267-13.984 10.597zM24.556 9.95c0 4.362-3.522 7.9-7.871 7.9h-2.04c-4.35 0-7.872-3.538-7.872-7.9V7.9c0-4.363 3.522-7.9 7.871-7.9h2.04c4.35 0 7.872 3.537 7.872 7.9v2.05"/></g></symbol></svg>